<?xml version="1.0" encoding="utf-8"?>
<!-- Generator: Adobe Illustrator 25.4.1, SVG Export Plug-In . SVG Version: 6.00 Build 0)  -->
<svg version="1.1" id="Capa_1" xmlns="http://www.w3.org/2000/svg" xmlns:xlink="http://www.w3.org/1999/xlink" x="0px" y="0px"
	 viewBox="0 0 1080 1080" style="enable-background:new 0 0 1080 1080;" xml:space="preserve">
<style type="text/css">
	.st0{fill:#003594;}
	.st1{fill:#FFFFFF;}
	.st2{fill:#FFFFFF;stroke:#FFFFFF;stroke-width:0.25;stroke-miterlimit:10;}
</style>
<g>
	<circle class="st1" cx="540" cy="540" r="477"/>
</g>
<g>
	<g>
		<rect x="246.6" y="474.1" class="st0" width="30.9" height="147.5"/>
		<path class="st0" d="M444.3,591.7c11.8-11.5,17.8-26.3,17.8-44.2c0-10.6-2-20.7-6-30.1c-4-9.4-9.5-17.5-16.4-24.2
			c-6.9-6.7-15.1-12-24.6-15.8c-9.4-3.8-19.6-5.8-30.1-5.8c-14.2,0-27.4,3.4-39.1,10.1c-11.8,6.7-21.1,15.9-27.7,27.4
			c-6.7,11.5-10,24.3-10,38c0,10.4,2,20.4,6,29.7c4,9.3,9.5,17.3,16.3,23.8c6.8,6.5,14.9,11.7,24.1,15.4c9.2,3.7,19,5.6,29,5.6h87.6
			v-30H444.3z M431.1,547.3c0,8.7-2.1,16.6-6.1,23.5c-4,6.9-9.6,12.4-16.6,16.2c-7,3.8-14.8,5.8-23.2,5.8c-12.9,0-24-4.3-32.9-12.8
			c-9-8.6-13.4-19.2-13.4-32.5c0-8.6,2-16.6,6-23.8c4-7.1,9.6-12.9,16.6-17c7-4.1,14.9-6.2,23.4-6.2c8.5,0,16.3,2.1,23.4,6.1
			c7,4,12.6,9.7,16.6,16.8C429.1,530.6,431.1,538.7,431.1,547.3z"/>
		<polygon class="st0" points="602.2,474.1 602.2,568.8 533.7,474.1 497.7,474.1 497.7,621.7 528.6,621.7 528.6,520 602.2,621.7 
			633,621.7 633,474.1 		"/>
		<polygon class="st0" points="768.7,504.2 768.7,474.1 666.6,474.1 666.6,621.7 768.7,621.7 768.7,591.7 697.5,591.7 697.5,559.8 
			754.9,559.8 754.9,529.8 697.5,529.8 697.5,504.2 		"/>
		<polygon class="st0" points="797.7,474.1 797.7,504.2 843.4,504.2 843.4,621.7 874.3,621.7 874.3,504.2 919.6,504.2 919.6,474.1 
					"/>
	</g>
	<g>
		<path class="st0" d="M348.3,348.1c0.2-6.2,5.4-11.1,11.6-10.9c6.2,0.2,11.1,5.4,10.9,11.6c-0.2,6.2-5.4,11.1-11.6,10.9
			C352.9,359.6,348.1,354.3,348.3,348.1z"/>
		<path class="st0" d="M380.5,322.6c0.2-6.7,5.8-11.9,12.4-11.7c6.7,0.2,11.9,5.8,11.7,12.4c-0.2,6.7-5.8,11.9-12.4,11.7
			C385.6,334.8,380.3,329.2,380.5,322.6z"/>
		<path class="st0" d="M455,288.4c0.2-7.5,6.5-13.4,14.1-13.2c7.5,0.2,13.4,6.5,13.2,14.1c-0.2,7.5-6.5,13.4-14.1,13.2
			C460.7,302.2,454.8,295.9,455,288.4z"/>
		<path class="st0" d="M536.3,279.4c0.3-8.4,7.3-14.9,15.7-14.7c8.4,0.3,14.9,7.3,14.7,15.7c-0.3,8.4-7.3,14.9-15.7,14.7
			C542.6,294.8,536,287.8,536.3,279.4z"/>
		<path class="st0" d="M577,284.7c0.3-8.8,7.7-15.7,16.5-15.4c8.8,0.3,15.7,7.7,15.4,16.5c-0.3,8.8-7.7,15.7-16.5,15.4
			C583.6,300.9,576.7,293.5,577,284.7z"/>
		<path class="st0" d="M616.3,296.4c0.3-9.2,8-16.5,17.3-16.2s16.5,8,16.2,17.3c-0.3,9.2-8,16.5-17.3,16.2
			C623.2,313.4,616,305.7,616.3,296.4z"/>
		<path class="st0" d="M653.3,314.3c0.3-9.7,8.4-17.2,18.1-16.9c9.7,0.3,17.2,8.4,16.9,18.1c-0.3,9.7-8.4,17.2-18.1,16.9
			S653,324,653.3,314.3z"/>
		<circle class="st0" cx="256.2" cy="384.1" r="9.7"/>
		<path class="st0" d="M274.5,341.6c0.2-5.8,5-10.3,10.8-10.2c5.8,0.2,10.3,5,10.2,10.8c-0.2,5.8-5,10.3-10.8,10.2
			C278.9,352.3,274.4,347.4,274.5,341.6z"/>
		<path class="st0" d="M348.4,273.3c0.2-6.7,5.8-11.9,12.4-11.7s11.9,5.8,11.7,12.4c-0.2,6.7-5.8,11.9-12.4,11.7
			S348.2,280,348.4,273.3z"/>
		<path class="st0" d="M392.4,248.8c0.2-7.1,6.2-12.6,13.2-12.4c7.1,0.2,12.6,6.2,12.4,13.2c-0.2,7.1-6.2,12.6-13.2,12.4
			C397.7,261.8,392.1,255.9,392.4,248.8z"/>
		<path class="st0" d="M439.6,231.6c0.2-7.5,6.5-13.4,14.1-13.2c7.5,0.2,13.4,6.5,13.2,14.1s-6.5,13.4-14.1,13.2
			C445.3,245.4,439.4,239.1,439.6,231.6z"/>
		<path class="st0" d="M489,222.2c0.3-7.9,6.9-14.2,14.9-13.9c7.9,0.3,14.2,6.9,13.9,14.9c-0.3,7.9-6.9,14.2-14.9,13.9
			C495,236.8,488.7,230.1,489,222.2z"/>
		<path class="st0" d="M539.2,220.7c0.3-8.4,7.3-14.9,15.7-14.7c8.4,0.3,14.9,7.3,14.7,15.7c-0.3,8.4-7.3,14.9-15.7,14.7
			C545.5,236.1,538.9,229.1,539.2,220.7z"/>
		<path class="st0" d="M587.6,226.9c0.3-8.8,7.7-15.7,16.5-15.4s15.7,7.7,15.4,16.5c-0.3,8.8-7.7,15.7-16.5,15.4
			S587.3,235.7,587.6,226.9z"/>
		<path class="st0" d="M637.3,241.2c0.3-9.2,8-16.5,17.3-16.2c9.2,0.3,16.5,8,16.2,17.3s-8,16.5-17.3,16.2
			C644.3,258.2,637,250.5,637.3,241.2z"/>
		<path class="st0" d="M682.5,263.3c0.3-9.7,8.4-17.2,18.1-16.9c9.7,0.3,17.2,8.4,16.9,18.1c-0.3,9.7-8.4,17.2-18.1,16.9
			C689.8,281.1,682.2,273,682.5,263.3z"/>
		<path class="st0" d="M723.9,292.1c0.3-10.1,8.8-18,18.9-17.7c10.1,0.3,18,8.8,17.7,18.9c-0.3,10.1-8.8,18-18.9,17.7
			C731.5,310.6,723.5,302.2,723.9,292.1z"/>
		<path class="st0" d="M760.2,327.1c0.3-10.5,9.2-18.8,19.7-18.4c10.5,0.3,18.8,9.2,18.4,19.7c-0.3,10.5-9.2,18.8-19.7,18.4
			C768.1,346.4,759.8,337.6,760.2,327.1z"/>
		<path class="st0" d="M170.6,702.4c0.2-7.3,6.3-13,13.7-12.8c7.3,0.2,13,6.3,12.8,13.7s-6.3,13-13.7,12.8
			C176.1,715.8,170.4,709.7,170.6,702.4z"/>
		<path class="st0" d="M148.9,647.1c0.3-7.7,6.7-13.8,14.5-13.5c7.7,0.3,13.8,6.7,13.5,14.5c-0.3,7.7-6.7,13.8-14.5,13.5
			C154.8,661.3,148.7,654.8,148.9,647.1z"/>
		<path class="st0" d="M136.9,587.1c0.3-8.2,7.1-14.6,15.3-14.3c8.2,0.3,14.6,7.1,14.3,15.3c-0.3,8.2-7.1,14.6-15.3,14.3
			C143.1,602.1,136.7,595.3,136.9,587.1z"/>
		<path class="st0" d="M134.5,526.1c0.3-8.6,7.5-15.3,16.1-15c8.6,0.3,15.3,7.5,15,16.1c-0.3,8.6-7.5,15.3-16.1,15
			C140.9,541.9,134.2,534.7,134.5,526.1z"/>
		<path class="st0" d="M141.4,465.6c0.3-9,7.8-16.1,16.9-15.8s16.1,7.8,15.8,16.9c-0.3,9-7.8,16.1-16.9,15.8
			S141.1,474.6,141.4,465.6z"/>
		<path class="st0" d="M157.7,407c0.3-9.4,8.2-16.9,17.7-16.6c9.4,0.3,16.9,8.2,16.6,17.7c-0.3,9.4-8.2,16.9-17.7,16.6
			C164.9,424.3,157.4,416.4,157.7,407z"/>
		<path class="st0" d="M183.1,351.8c0.3-9.9,8.6-17.6,18.5-17.3c9.9,0.3,17.6,8.6,17.3,18.5c-0.3,9.9-8.6,17.6-18.5,17.3
			C190.5,370,182.8,361.7,183.1,351.8z"/>
		<circle class="st0" cx="235.4" cy="302" r="18.7"/>
		<path class="st0" d="M258.6,257c0.3-10.3,9-18.4,19.3-18.1c10.3,0.3,18.4,9,18.1,19.3c-0.3,10.3-9,18.4-19.3,18.1
			C266.4,276,258.3,267.4,258.6,257z"/>
		<path class="st0" d="M306.1,219.7c0.3-10.7,9.3-19.2,20.1-18.8c10.7,0.3,19.2,9.3,18.8,20.1c-0.3,10.7-9.3,19.2-20.1,18.8
			C314.2,239.4,305.8,230.4,306.1,219.7z"/>
		<path class="st0" d="M358.8,190.2c0.4-11.2,9.7-19.9,20.9-19.6c11.2,0.4,19.9,9.7,19.6,20.9c-0.4,11.2-9.7,19.9-20.9,19.6
			C367.2,210.7,358.4,201.4,358.8,190.2z"/>
		<circle class="st0" cx="436.5" cy="170.4" r="21"/>
		<path class="st0" d="M474.7,158.4c0.4-12,10.5-21.5,22.5-21.1c12,0.4,21.5,10.5,21.1,22.5c-0.4,12-10.5,21.5-22.5,21.1
			C483.8,180.5,474.4,170.4,474.7,158.4z"/>
		<path class="st0" d="M535.3,156.6c0.4-12.5,10.8-22.2,23.3-21.8c12.5,0.4,22.2,10.8,21.8,23.3c-0.4,12.5-10.8,22.2-23.3,21.8
			C544.7,179.5,534.9,169.1,535.3,156.6z"/>
		<path class="st0" d="M594.8,164.3c0.4-12.9,11.2-23,24.1-22.6c12.9,0.4,23,11.2,22.6,24.1c-0.4,12.9-11.2,23-24.1,22.6
			C604.5,187.9,594.4,177.1,594.8,164.3z"/>
		<path class="st0" d="M308.8,304.5c0.2-6.2,5.4-11.1,11.6-10.9c6.2,0.2,11.1,5.4,10.9,11.6c-0.2,6.2-5.4,11.1-11.6,10.9
			C313.5,316,308.6,310.8,308.8,304.5z"/>
		<path class="st0" d="M495.7,280.4c0.3-7.9,6.9-14.2,14.9-13.9c7.9,0.3,14.2,6.9,13.9,14.9s-6.9,14.2-14.9,13.9
			C501.7,295,495.5,288.3,495.7,280.4z"/>
		<path class="st0" d="M416.5,302c0.2-7.1,6.2-12.6,13.2-12.4c7.1,0.2,12.6,6.2,12.4,13.2c-0.2,7.1-6.2,12.6-13.2,12.4
			C421.8,315.1,416.3,309.1,416.5,302z"/>
	</g>
</g>
<path class="st0" d="M272.9,746.2v-55.4h20.4c5.7,0,10.2,1.3,13.4,3.9s4.9,6.5,4.9,11.8c0,4.4-1.1,7.8-3.4,10.4
	c-2.3,2.5-5.5,4.1-9.8,4.8l14.5,24.6h-8.8L290,722.1h-9.5v24.1H272.9z M280.5,714.9h12.6c1.7,0,3.1-0.1,4.3-0.4
	c1.2-0.3,2.4-0.7,3.4-1.3s1.8-1.5,2.3-2.6c0.5-1.1,0.8-2.5,0.8-4.1c0-2.9-0.9-5.1-2.7-6.5c-1.8-1.4-4.5-2.1-8.1-2.1h-12.6V714.9z"/>
<path class="st0" d="M326.2,746.2v-55.4h32.3v7.2h-24.7v15.7h20.5v7.2h-20.5V739h24.7v7.2H326.2z"/>
<path class="st0" d="M368.6,718.5c0-3.9,0.8-7.6,2.3-11.2c1.5-3.5,3.5-6.6,6.1-9.1c2.6-2.5,5.6-4.6,9.2-6.1
	c3.6-1.5,7.4-2.3,11.3-2.3c4,0,7.8,0.8,11.4,2.3c3.5,1.5,6.7,3.7,9.3,6.5l-5.4,4.8c-2-2.1-4.3-3.7-6.9-4.8c-2.6-1.1-5.3-1.7-8.2-1.7
	c-2.9,0-5.7,0.6-8.4,1.8c-2.7,1.2-4.9,2.8-6.8,4.7c-1.9,2-3.4,4.3-4.5,6.9c-1.1,2.6-1.7,5.4-1.7,8.2c0,2.9,0.6,5.6,1.7,8.3
	c1.1,2.7,2.7,5,4.6,6.9c1.9,1.9,4.2,3.5,6.8,4.6c2.6,1.2,5.3,1.7,8.1,1.7c2.8,0,5.5-0.6,8.1-1.7c2.6-1.1,4.9-2.7,6.8-4.6l5,5
	c-5.7,5.5-12.3,8.3-20,8.3c-5.2,0-9.9-1.3-14.4-3.8c-4.4-2.5-7.9-6-10.5-10.4S368.6,723.8,368.6,718.5z"/>
<path class="st0" d="M426.5,718.6c0-3.9,0.7-7.6,2.2-11.1c1.5-3.5,3.5-6.6,6-9.1c2.5-2.6,5.6-4.6,9.2-6.1c3.6-1.5,7.4-2.3,11.5-2.3
	c4,0,7.8,0.7,11.4,2.2c3.6,1.5,6.7,3.5,9.2,6.1c2.6,2.5,4.6,5.6,6.1,9.1c1.5,3.5,2.3,7.3,2.3,11.2c0,3.9-0.8,7.7-2.3,11.2
	c-1.5,3.6-3.6,6.6-6.1,9.2c-2.6,2.5-5.7,4.6-9.2,6.1c-3.6,1.5-7.3,2.2-11.3,2.2c-3.9,0-7.7-0.7-11.2-2.2c-3.6-1.5-6.6-3.5-9.2-6
	c-2.6-2.5-4.7-5.6-6.2-9.1C427.3,726.3,426.5,722.5,426.5,718.6z M434.1,718.6c0,3.9,0.9,7.6,2.8,10.9c1.9,3.3,4.5,5.9,7.7,7.8
	c3.3,1.9,6.9,2.9,10.7,2.9c3.9,0,7.5-1,10.8-2.9c3.3-1.9,5.8-4.5,7.7-7.8c1.9-3.3,2.8-6.9,2.8-10.9c0-3.9-0.9-7.5-2.8-10.9
	c-1.8-3.3-4.4-6-7.7-7.9c-3.3-2-6.9-2.9-10.9-2.9c-4,0-7.6,1-10.9,3c-3.3,2-5.8,4.6-7.6,8C435.1,711.1,434.1,714.7,434.1,718.6z"/>
<path class="st0" d="M498.1,729.8c-1.5-3.5-2.2-7.3-2.2-11.2c0-3.9,0.8-7.7,2.3-11.2c1.5-3.6,3.5-6.6,6.1-9.2
	c2.6-2.6,5.6-4.6,9.2-6.1c3.6-1.5,7.3-2.2,11.3-2.2c4.1,0,8,0.8,11.7,2.4c3.7,1.6,6.9,3.8,9.7,6.6l-4.8,5.3c-2-2.4-4.5-4.2-7.4-5.4
	c-2.9-1.2-5.9-1.8-9-1.8c-4,0-7.6,1-10.9,2.9c-3.3,2-5.9,4.6-7.7,7.9s-2.8,7-2.8,11c0,3.9,0.9,7.5,2.8,10.8c1.8,3.3,4.4,5.9,7.7,7.8
	c3.3,1.9,6.9,2.9,11,2.9c2.4,0,4.7-0.4,6.7-1.1c2.1-0.7,3.9-1.8,5.6-3.2c1.6-1.4,2.9-3.3,3.9-5.5c1-2.3,1.6-4.9,1.7-7.8h-19.7v-7.2
	h27.1v4.8c0,5.2-1,9.9-3.1,14c-2.1,4.1-5,7.3-8.9,9.6c-3.9,2.3-8.4,3.5-13.5,3.5c-4,0-7.8-0.7-11.4-2.2c-3.6-1.5-6.7-3.5-9.2-6
	C501.7,736.4,499.6,733.4,498.1,729.8z"/>
<path class="st0" d="M566.5,746.2v-55.4h9.9l31.5,42.6v-42.6h7.6v55.4h-8l-33.4-45.3v45.3H566.5z"/>
<path class="st0" d="M633.4,746.2v-55.4h7.6v55.4H633.4z"/>
<path class="st0" d="M655.6,746.2V739l33.3-41h-32.5v-7.2h42.1v7.2l-33.2,41h33.3v7.2H655.6z"/>
<path class="st0" d="M713.3,746.2v-55.4h32.3v7.2h-24.7v15.7h20.5v7.2h-20.5V739h24.7v7.2H713.3z"/>
<path class="st0" d="M761.1,746.2v-55.4h15.3c4.2,0,8.2,0.6,11.8,1.9c3.6,1.3,6.8,3.1,9.4,5.5s4.7,5.3,6.2,8.8s2.2,7.4,2.2,11.6
	c0,4.2-0.7,8.1-2.2,11.6c-1.5,3.5-3.6,6.4-6.2,8.7c-2.6,2.3-5.8,4.2-9.4,5.4c-3.6,1.3-7.6,1.9-11.9,1.9H761.1z M768.7,739h7.1
	c3.2,0,6.2-0.4,8.8-1.2c2.7-0.8,5-2,7.1-3.6c2.1-1.6,3.7-3.7,4.8-6.4c1.2-2.6,1.7-5.7,1.7-9.2c0-3.6-0.6-6.8-1.9-9.5
	c-1.2-2.7-3-4.9-5.2-6.4s-4.7-2.8-7.4-3.5c-2.7-0.8-5.7-1.1-9-1.1h-6.2V739z"/>
<path class="st0" d="M271.1,805.4c0-3.9,0.8-7.6,2.3-11.1c1.5-3.5,3.5-6.6,6.1-9.1c2.6-2.5,5.6-4.6,9.2-6.1
	c3.6-1.5,7.3-2.2,11.3-2.2c4,0,7.8,0.8,11.4,2.3c3.5,1.5,6.7,3.7,9.3,6.5l-5.4,4.8c-2-2.1-4.3-3.7-6.9-4.8c-2.6-1.1-5.3-1.7-8.2-1.7
	c-2.9,0-5.7,0.6-8.4,1.8c-2.7,1.2-4.9,2.8-6.8,4.7c-1.9,2-3.4,4.3-4.5,6.9c-1.1,2.6-1.7,5.4-1.7,8.2c0,2.9,0.6,5.6,1.7,8.3
	c1.1,2.7,2.7,5,4.6,6.9c1.9,1.9,4.2,3.5,6.8,4.6c2.6,1.2,5.3,1.7,8.1,1.7c2.8,0,5.5-0.6,8.1-1.7c2.6-1.1,4.9-2.7,6.8-4.6l5,5
	c-5.7,5.5-12.3,8.3-20,8.3c-5.2,0-9.9-1.3-14.4-3.8c-4.4-2.5-7.9-6-10.5-10.4C272.4,815.6,271.1,810.7,271.1,805.4z"/>
<path class="st0" d="M326.6,833.1v-55.4h32.3v7.2h-24.7v15.7h20.5v7.2h-20.5v18.1h24.7v7.2H326.6z"/>
<path class="st0" d="M367.3,833.1v-55.4h20.3c5.7,0,10.2,1.3,13.4,3.9c3.3,2.6,4.9,6.5,4.9,11.8c0,4.4-1.1,7.8-3.4,10.4
	c-2.3,2.5-5.5,4.1-9.8,4.8l14.5,24.5h-8.8L384.4,809h-9.5v24.1H367.3z M374.9,801.8h12.6c1.7,0,3.1-0.1,4.3-0.4
	c1.2-0.3,2.4-0.7,3.4-1.3c1-0.6,1.8-1.5,2.3-2.6c0.5-1.1,0.8-2.5,0.8-4.1c0-2.9-0.9-5.1-2.7-6.5c-1.8-1.4-4.5-2.1-8.1-2.1h-12.6
	V801.8z"/>
<path class="st0" d="M408.5,784.9v-7.2h43v7.2h-17.7v48.2h-7.6v-48.2H408.5z"/>
<path class="st0" d="M457.4,833.1v-55.4h7.6v55.4H457.4z"/>
<path class="st0" d="M475.8,833.1v-55.4h32.5v7.2h-24.9v15.7h20.6v7.2h-20.6v25.3H475.8z"/>
<path class="st0" d="M515.2,833.1v-55.4h7.6v55.4H515.2z"/>
<path class="st0" d="M529.6,805.4c0-3.9,0.8-7.6,2.3-11.1c1.5-3.5,3.5-6.6,6.1-9.1c2.6-2.5,5.6-4.6,9.2-6.1
	c3.6-1.5,7.3-2.2,11.3-2.2c4,0,7.8,0.8,11.4,2.3c3.5,1.5,6.7,3.7,9.3,6.5l-5.4,4.8c-2-2.1-4.3-3.7-6.9-4.8c-2.6-1.1-5.3-1.7-8.2-1.7
	c-2.9,0-5.7,0.6-8.4,1.8c-2.7,1.2-4.9,2.8-6.8,4.7c-1.9,2-3.4,4.3-4.5,6.9c-1.1,2.6-1.7,5.4-1.7,8.2c0,2.9,0.6,5.6,1.7,8.3
	c1.1,2.7,2.7,5,4.6,6.9c1.9,1.9,4.2,3.5,6.8,4.6c2.6,1.2,5.3,1.7,8.1,1.7c2.8,0,5.5-0.6,8.1-1.7c2.6-1.1,4.9-2.7,6.9-4.6l5,5
	c-5.7,5.5-12.3,8.3-20,8.3c-5.2,0-9.9-1.3-14.4-3.8c-4.4-2.5-7.9-6-10.5-10.4C530.9,815.6,529.6,810.7,529.6,805.4z"/>
<path class="st0" d="M580,833.1l21.8-55.4h8.4l21.8,55.4h-8.4l-4.9-12.9h-25.4l-5,12.9H580z M596,813h19.9l-9.9-26L596,813z"/>
<path class="st0" d="M627.1,784.9v-7.2h43v7.2h-17.7v48.2h-7.6v-48.2H627.1z"/>
<path class="st0" d="M676,833.1v-55.4h7.6v55.4H676z"/>
<path class="st0" d="M690.4,805.5c0-3.9,0.7-7.6,2.2-11.1c1.5-3.5,3.5-6.6,6-9.1s5.6-4.6,9.2-6.1c3.6-1.5,7.4-2.3,11.5-2.3
	c4,0,7.8,0.7,11.4,2.2c3.6,1.5,6.6,3.5,9.2,6.1c2.6,2.5,4.6,5.6,6.1,9.1c1.5,3.5,2.3,7.3,2.3,11.2c0,3.9-0.8,7.7-2.3,11.2
	c-1.5,3.6-3.6,6.6-6.1,9.2c-2.6,2.5-5.6,4.6-9.2,6.1s-7.3,2.2-11.3,2.2c-3.9,0-7.7-0.7-11.2-2.2c-3.6-1.5-6.6-3.5-9.2-6
	c-2.6-2.5-4.7-5.6-6.2-9.1C691.2,813.2,690.4,809.5,690.4,805.5z M698.1,805.5c0,3.9,0.9,7.6,2.8,10.9c1.9,3.3,4.5,5.9,7.7,7.8
	c3.3,1.9,6.9,2.9,10.7,2.9c3.9,0,7.5-1,10.8-2.9c3.3-1.9,5.8-4.5,7.7-7.8c1.9-3.3,2.8-6.9,2.8-10.9c0-3.9-0.9-7.5-2.8-10.9
	c-1.8-3.3-4.4-6-7.7-7.9c-3.3-1.9-6.9-2.9-10.9-2.9c-4,0-7.6,1-10.9,3c-3.3,2-5.8,4.6-7.6,8C699,798.1,698.1,801.7,698.1,805.5z"/>
<path class="st0" d="M755.1,833.1v-55.4h9.9l31.5,42.6v-42.6h7.6v55.4h-8l-33.4-45.3v45.3H755.1z"/>
</svg>
